<mxfile host="app.diagrams.net" agent="Mozilla/5.0 (Macintosh; Intel Mac OS X 10_15_7) AppleWebKit/537.36 (KHTML, like Gecko) Chrome/137.0.0.0 Safari/537.36" version="27.2.0">
  <diagram name="第 1 页" id="AxFR65FqJL532tHG_dSJ">
    <mxGraphModel dx="1174" dy="790" grid="1" gridSize="10" guides="1" tooltips="1" connect="1" arrows="1" fold="1" page="1" pageScale="1" pageWidth="827" pageHeight="1169" math="0" shadow="0">
      <root>
        <mxCell id="0" />
        <mxCell id="1" parent="0" />
        <mxCell id="1QqDAw7IWx45tSKUyhLu-5" value="采购管理" style="ellipse;whiteSpace=wrap;html=1;" parent="1" vertex="1">
          <mxGeometry x="190" y="300" width="170" height="60" as="geometry" />
        </mxCell>
        <mxCell id="1QqDAw7IWx45tSKUyhLu-6" value="销售管理" style="ellipse;whiteSpace=wrap;html=1;" parent="1" vertex="1">
          <mxGeometry x="520" y="300" width="160" height="60" as="geometry" />
        </mxCell>
        <mxCell id="1QqDAw7IWx45tSKUyhLu-7" value="存货管理" style="ellipse;whiteSpace=wrap;html=1;" parent="1" vertex="1">
          <mxGeometry x="329" y="430" width="170" height="60" as="geometry" />
        </mxCell>
        <mxCell id="1QqDAw7IWx45tSKUyhLu-8" value="" style="endArrow=open;startArrow=open;endFill=0;startFill=0;html=1;rounded=0;curved=0;" parent="1" edge="1">
          <mxGeometry width="160" relative="1" as="geometry">
            <mxPoint x="360" y="330" as="sourcePoint" />
            <mxPoint x="520" y="330" as="targetPoint" />
          </mxGeometry>
        </mxCell>
        <mxCell id="1QqDAw7IWx45tSKUyhLu-9" value="" style="endArrow=open;startArrow=open;endFill=0;startFill=0;html=1;rounded=0;curved=0;entryX=0.5;entryY=0;entryDx=0;entryDy=0;" parent="1" target="1QqDAw7IWx45tSKUyhLu-7" edge="1">
          <mxGeometry width="160" relative="1" as="geometry">
            <mxPoint x="310" y="360" as="sourcePoint" />
            <mxPoint x="470" y="360" as="targetPoint" />
          </mxGeometry>
        </mxCell>
        <mxCell id="1QqDAw7IWx45tSKUyhLu-10" value="" style="endArrow=open;startArrow=open;endFill=0;startFill=0;html=1;rounded=0;curved=0;entryX=0.5;entryY=1;entryDx=0;entryDy=0;" parent="1" target="1QqDAw7IWx45tSKUyhLu-6" edge="1">
          <mxGeometry width="160" relative="1" as="geometry">
            <mxPoint x="414" y="430" as="sourcePoint" />
            <mxPoint x="518" y="500" as="targetPoint" />
            <Array as="points" />
          </mxGeometry>
        </mxCell>
      </root>
    </mxGraphModel>
  </diagram>
</mxfile>
